<svg width="30" height="44" viewBox="0 0 30 44" fill="none" xmlns="http://www.w3.org/2000/svg">
<path d="M14.5391 0.495713C6.32891 0.760072 0 8.45417 0 17.277V39.4261C0 40.6228 1.34609 41.2212 2.13359 40.3753L4.08047 38.8202C4.60078 38.4047 5.33047 38.4853 5.76094 39.0056L9.11641 43.0633C9.60469 43.5879 10.3961 43.5879 10.8844 43.0633L14.0656 39.2154C14.5633 38.6137 15.4375 38.6137 15.9344 39.2154L19.1156 43.0633C19.6039 43.5879 20.3953 43.5879 20.8836 43.0633L24.2391 39.0056C24.6695 38.4853 25.3992 38.4039 25.9195 38.8202L27.8664 40.3753C28.6539 41.2212 30 40.622 30 39.4261V16.6014C30 7.53772 23.0336 0.222123 14.5391 0.495713ZM10 19.287C8.61953 19.287 7.5 18.0844 7.5 16.6014C7.5 15.1185 8.61953 13.9159 10 13.9159C11.3805 13.9159 12.5 15.1185 12.5 16.6014C12.5 18.0844 11.3805 19.287 10 19.287ZM20 19.287C18.6195 19.287 17.5 18.0844 17.5 16.6014C17.5 15.1185 18.6195 13.9159 20 13.9159C21.3805 13.9159 22.5 15.1185 22.5 16.6014C22.5 18.0844 21.3805 19.287 20 19.287Z" fill="white"/>
</svg>
